<svg width="120" height="120" viewBox="0 0 120 120" fill="none" xmlns="http://www.w3.org/2000/svg">
<g clip-path="url(#clip0_206_2741)">
<path d="M42.804 56.6375C49.7877 56.6375 56.0046 59.9183 59.9993 65.0222C63.994 59.9181 70.2116 56.6375 77.1956 56.6375H78.4612C90.5142 56.6376 100.285 66.4086 100.285 78.4617C100.285 90.5147 90.5142 100.286 78.4612 100.286H77.1956C70.2114 100.286 63.994 97.0046 59.9993 91.9001C56.0046 97.0044 49.788 100.286 42.804 100.286H41.5384C29.4853 100.286 19.7142 90.5147 19.7141 78.4617C19.7141 66.4086 29.4853 56.6376 41.5384 56.6375H42.804ZM41.1302 62.6423L40.7307 62.657C40.6505 62.661 40.5704 62.6664 40.4905 62.6716C40.51 62.6704 40.5296 62.6699 40.5491 62.6687C32.2706 63.1795 25.7141 70.0545 25.7141 78.4617C25.7142 87.201 32.799 94.2858 41.5384 94.2859H42.805C51.5442 94.2856 58.6282 87.2009 58.6282 78.4617C58.6282 69.7224 51.5442 62.6377 42.805 62.6375H41.5384C41.4019 62.6375 41.2658 62.6389 41.1302 62.6423ZM77.1956 62.6375C68.4561 62.6375 61.3714 69.7222 61.3714 78.4617C61.3714 87.2011 68.4562 94.2859 77.1956 94.2859H78.4612C78.5977 94.2859 78.7338 94.2844 78.8694 94.281L79.262 94.2664L79.2669 94.2654C87.6319 93.8459 94.2854 86.9309 94.2854 78.4617C94.2854 69.8606 87.4234 62.8619 78.8753 62.6423C78.8736 62.6423 78.872 62.6424 78.8704 62.6423L78.4612 62.6375H77.1956Z" fill="white"/>
<mask id="path-3-outside-1_206_2741" maskUnits="userSpaceOnUse" x="35.9989" y="19.7142" width="53" height="28" fill="black">
<rect fill="white" x="35.9989" y="19.7142" width="53" height="28"/>
<path d="M74.3729 25.7142C78.7426 25.7142 82.285 29.2566 82.285 33.6263C82.285 37.9961 78.7426 41.5385 74.3729 41.5385H44.6366C43.18 41.5385 41.9989 40.3573 41.9989 38.9008C41.9991 37.4444 43.1801 36.264 44.6366 36.264H60.5106C60.2188 35.4389 60.0584 34.5514 60.0584 33.6263C60.0584 29.2566 63.6009 25.7143 67.9706 25.7142H74.3729Z"/>
</mask>
<path d="M82.285 33.6263L88.285 33.6264V33.6263H82.285ZM41.9989 38.9008L35.9989 38.8998V38.9008H41.9989ZM60.5106 36.264V42.264H68.9962L66.1674 34.2639L60.5106 36.264ZM60.0584 33.6263H54.0584L54.0584 33.6264L60.0584 33.6263ZM67.9706 25.7142V19.7142H67.9705L67.9706 25.7142ZM74.3729 25.7142V31.7142C75.4289 31.7142 76.285 32.5703 76.285 33.6263H82.285H88.285C88.285 25.9429 82.0563 19.7142 74.3729 19.7142V25.7142ZM82.285 33.6263L76.285 33.6263C76.285 34.6824 75.4289 35.5385 74.3729 35.5385V41.5385V47.5385C82.0563 47.5385 88.285 41.3097 88.285 33.6264L82.285 33.6263ZM74.3729 41.5385V35.5385H44.6366V41.5385V47.5385H74.3729V41.5385ZM44.6366 41.5385V35.5385C46.4937 35.5385 47.9989 37.0436 47.9989 38.9008H41.9989H35.9989C35.9989 43.671 39.8663 47.5385 44.6366 47.5385V41.5385ZM41.9989 38.9008L47.9989 38.9017C47.9986 40.7602 46.4919 42.264 44.6366 42.264V36.264V30.264C39.8683 30.264 35.9997 34.1285 35.9989 38.8998L41.9989 38.9008ZM44.6366 36.264V42.264H60.5106V36.264V30.264H44.6366V36.264ZM60.5106 36.264L66.1674 34.2639C66.097 34.0649 66.0584 33.8531 66.0584 33.6263L60.0584 33.6263L54.0584 33.6264C54.0584 35.2498 54.3406 36.8129 54.8538 38.2642L60.5106 36.264ZM60.0584 33.6263H66.0584C66.0584 32.5704 66.9145 31.7142 67.9706 31.7142L67.9706 25.7142L67.9705 19.7142C60.2872 19.7143 54.0584 25.9429 54.0584 33.6263H60.0584ZM67.9706 25.7142V31.7142H74.3729V25.7142V19.7142H67.9706V25.7142Z" fill="white" mask="url(#path-3-outside-1_206_2741)"/>
<circle cx="85.7142" cy="69.4286" r="5.14286" fill="white"/>
<circle cx="49.7145" cy="69.4286" r="5.14286" fill="white"/>
</g>
<defs>
<clipPath id="clip0_206_2741">
<rect width="80.5714" height="80.5714" fill="white" transform="translate(19.714 19.7142)"/>
</clipPath>
</defs>
</svg>
