<svg width="120" height="124" viewBox="0 0 120 124" fill="none" xmlns="http://www.w3.org/2000/svg">
<path d="M34 61C17.9837 61 5 73.9837 5 90C5 106.016 17.9837 119 34 119C50.0163 119 63 106.016 63 90C63 73.9837 50.0163 61 34 61Z" fill="#DE3B3B" stroke="white" stroke-width="10"/>
<path d="M86 61C69.9837 61 57 73.9837 57 90C57 106.016 69.9837 119 86 119C102.016 119 115 106.016 115 90C115 73.9837 102.016 61 86 61Z" fill="#DE3B3B" stroke="white" stroke-width="10"/>
<path d="M38 21C33.0294 21 29 25.0294 29 30C29 34.9706 33.0294 39 38 39H82C86.9706 39 91 34.9706 91 30C91 25.0294 86.9706 21 82 21H38Z" fill="#663D1F" stroke="white" stroke-width="10"/>
<path d="M72 5C62.6112 5 55 12.6112 55 22C55 31.3888 62.6112 39 72 39H80C89.3888 39 97 31.3888 97 22C97 12.6112 89.3888 5 80 5H72Z" fill="#45AD4F" stroke="white" stroke-width="10"/>
<path d="M10 90C10 76.7452 20.7452 66 34 66C47.2548 66 58 76.7452 58 90C58 103.255 47.2548 114 34 114C20.7452 114 10 103.255 10 90Z" fill="#DE3B3B"/>
<path d="M62 90C62 76.7452 72.7452 66 86 66C99.2548 66 110 76.7452 110 90C110 103.255 99.2548 114 86 114C72.7452 114 62 103.255 62 90Z" fill="#DE3B3B"/>
<path d="M34 30C34 27.7909 35.7909 26 38 26H82C84.2091 26 86 27.7909 86 30C86 32.2091 84.2091 34 82 34H38C35.7909 34 34 32.2091 34 30Z" fill="#DE3B3B"/>
<path d="M60 22C60 15.3726 65.3726 10 72 10H80C86.6274 10 92 15.3726 92 22C92 28.6274 86.6274 34 80 34H72C65.3726 34 60 28.6274 60 22Z" fill="#DE3B3B"/>
</svg>
